<svg width="200" height="200" viewBox="0 0 200 200" fill="none" xmlns="http://www.w3.org/2000/svg">
<rect width="200" height="200" rx="40" fill="white"/>
<path d="M48.584 72.808C49.5227 75.7947 51.3573 78.568 54.088 81.128C56.8187 83.688 60.0187 86.248 63.688 88.808C67.4427 91.2827 71.2827 93.9707 75.208 96.872C79.2187 99.7733 82.9733 103.101 86.472 106.856C90.056 110.611 92.9573 115.005 95.176 120.04C94.664 123.368 93.4267 126.739 91.464 130.152C89.5013 133.48 87.1547 136.509 84.424 139.24C81.6933 141.971 78.8773 144.104 75.976 145.64C72.904 146.152 69.3627 146.493 65.352 146.664C61.3413 146.92 57.16 146.835 52.808 146.408C48.5413 145.981 44.4027 145.128 40.392 143.848C39.1973 142.909 37.7893 141.501 36.168 139.624C34.5467 137.747 33.1387 135.997 31.944 134.376L33.992 114.664C35.6133 114.152 37.4907 113.811 39.624 113.64C41.8427 113.469 43.8053 113.64 45.512 114.152L46.664 130.792C50.0773 131.304 53.7893 131.475 57.8 131.304C61.896 131.133 65.9067 130.664 69.832 129.896C73.8427 129.043 77.2987 127.848 80.2 126.312C78.4933 122.899 76.0613 119.784 72.904 116.968C69.7467 114.067 66.248 111.293 62.408 108.648C58.6533 105.917 54.8987 103.144 51.144 100.328C47.3893 97.512 43.976 94.5253 40.904 91.368C37.9173 88.2107 35.656 84.6693 34.12 80.744C34.7173 77.416 35.7413 74.1307 37.192 70.888C38.728 67.56 40.4773 64.5733 42.44 61.928C44.488 59.1973 46.4933 57.1493 48.456 55.784C60.8293 52.2853 73.416 51.816 86.216 54.376C87.0693 54.888 87.9227 55.784 88.776 57.064C89.6293 58.2587 90.44 59.5387 91.208 60.904C92.0613 62.2693 92.744 63.336 93.256 64.104L91.336 81.512C89.7147 82.1093 87.88 82.408 85.832 82.408C83.8693 82.408 81.9067 82.1947 79.944 81.768L78.792 67.944C75.8907 67.688 72.648 67.688 69.064 67.944C65.48 68.1147 61.896 68.584 58.312 69.352C54.728 70.12 51.4853 71.272 48.584 72.808Z" fill="black"/>
<path d="M155.341 98.536C159.437 100.925 162.424 103.571 164.301 106.472C166.178 109.288 167.245 112.701 167.501 116.712C167.757 120.637 167.458 125.459 166.605 131.176C165.837 132.712 164.514 134.376 162.637 136.168C160.845 137.96 158.797 139.667 156.493 141.288C154.189 142.824 151.97 144.104 149.837 145.128C147.704 146.237 145.954 146.877 144.589 147.048L116.813 143.208L110.413 147.048C106.829 145.768 104.056 143.848 102.093 141.288L107.085 101.992L105.549 55.4L109.261 52.84C110.456 53.0107 112.205 53.6933 114.509 54.888C116.898 55.9973 118.861 57.1493 120.397 58.344C123.725 56.6373 127.224 55.3573 130.893 54.504C134.648 53.5653 138.274 53.0107 141.773 52.84C145.272 52.6693 148.386 52.8827 151.117 53.48C153.421 54.76 155.554 56.3813 157.517 58.344C159.565 60.3067 161.357 62.2693 162.893 64.232C164.429 66.1947 165.581 67.9013 166.349 69.352L165.325 88.552L155.341 98.536ZM149.837 67.688C145.912 66.8347 141.304 66.664 136.013 67.176C130.722 67.6027 125.816 69.0107 121.293 71.4L120.653 92.776L149.837 88.168C150.349 84.1573 150.605 80.4027 150.605 76.904C150.69 73.4053 150.434 70.3333 149.837 67.688ZM120.269 132.328L150.861 129.512C152.312 123.539 152.61 118.504 151.757 114.408C150.989 110.227 148.856 106.301 145.357 102.632L120.269 104.424V132.328Z" fill="#525252"/>
</svg>
