<svg width="346" height="41" viewBox="0 0 346 41" fill="none" xmlns="http://www.w3.org/2000/svg">
<path d="M21.116 9.67C21.116 10.506 21.1793 11.342 21.306 12.178C21.4327 12.9887 21.5847 13.736 21.762 14.42C21.9647 15.0787 22.18 15.636 22.408 16.092C22.636 16.548 22.8513 16.8393 23.054 16.966C22.598 17.422 22.218 17.954 21.914 18.562C21.6353 19.1447 21.4073 19.7653 21.23 20.424C21.078 21.0827 20.9767 21.7667 20.926 22.476C20.8753 23.16 20.85 23.8313 20.85 24.49C20.85 24.87 20.85 25.212 20.85 25.516C20.8753 25.7947 20.9007 26.0353 20.926 26.238C21.3567 26.3393 21.7747 26.4913 22.18 26.694C22.5853 26.8967 22.9527 27.188 23.282 27.568C23.6367 27.948 23.928 28.4293 24.156 29.012C24.4093 29.5947 24.574 30.304 24.65 31.14C23.13 30.684 21.8 30.3673 20.66 30.19C19.52 30.0127 18.4687 29.924 17.506 29.924C14.8967 29.924 12.7433 30.1393 11.046 30.57C9.34867 31.026 8.18333 31.444 7.55 31.824C7.19533 31.064 6.524 30.2407 5.536 29.354C4.548 28.442 3.446 27.4793 2.23 26.466C2.28067 26.1113 2.31867 25.6933 2.344 25.212C2.36933 24.7053 2.382 24.2747 2.382 23.92C2.382 23.0587 2.35667 22.2353 2.306 21.45C2.25533 20.6393 2.16667 19.9173 2.04 19.284C1.93867 18.6253 1.812 18.0807 1.66 17.65C1.508 17.194 1.33067 16.89 1.128 16.738C1.812 15.8513 2.306 14.7873 2.61 13.546C2.914 12.2793 3.066 10.924 3.066 9.48C3.066 8.16267 2.90133 6.90867 2.572 5.718C2.268 4.52733 1.736 3.38733 0.976 2.298C2.116 2.39933 3.09133 2.526 3.902 2.678C4.71267 2.80466 5.39667 3.058 5.954 3.438C6.51133 3.818 6.96733 4.388 7.322 5.148C7.702 5.88267 8.01867 6.896 8.272 8.188C8.272 10.9493 8.17067 13.6093 7.968 16.168C7.76533 18.7267 7.61333 21.3487 7.512 24.034L10.4 27.568C11.008 27.188 11.7427 26.8587 12.604 26.58C13.4907 26.3013 14.4787 26.1367 15.568 26.086C15.796 25.4527 15.948 24.528 16.024 23.312C16.1253 22.096 16.176 20.7027 16.176 19.132C16.2013 17.5613 16.214 15.864 16.214 14.04C16.214 12.216 16.2267 10.354 16.252 8.454C16.176 6.60467 16.062 4.64133 15.91 2.564C17.3793 3.04533 18.8487 3.286 20.318 3.286C20.9767 3.286 21.6733 3.23533 22.408 3.134C23.1427 3.00733 23.9787 2.81733 24.916 2.564C24.84 3.34933 24.6753 4.03333 24.422 4.616C24.194 5.19867 23.9027 5.69267 23.548 6.098C23.2187 6.478 22.8387 6.782 22.408 7.01C22.0027 7.238 21.5973 7.39 21.192 7.466C21.1667 7.66867 21.1413 7.93467 21.116 8.264C21.116 8.59333 21.116 9.062 21.116 9.67ZM50.7554 28.518C49.6661 29.2527 48.8554 29.9747 48.3234 30.684C47.7914 31.3933 47.3354 32.28 46.9554 33.344C46.7021 32.28 46.1954 31.3553 45.4354 30.57C44.7007 29.7847 43.7634 29.1007 42.6234 28.518C42.8514 28.29 43.0161 27.9987 43.1174 27.644C43.2441 27.264 43.3327 26.7447 43.3834 26.086C43.4594 25.402 43.5101 24.5407 43.5354 23.502C43.5607 22.4633 43.5987 21.1587 43.6494 19.588C43.5227 19.5373 43.1807 19.284 42.6234 18.828C42.0914 18.3467 41.4961 17.8147 40.8374 17.232L35.8594 20.348C35.9607 22.172 36.1001 23.92 36.2774 25.592C36.4547 27.2387 36.7207 28.8347 37.0754 30.38C36.4167 30.0507 35.8214 29.8227 35.2894 29.696C34.7827 29.5693 34.2887 29.506 33.8074 29.506C33.3767 29.506 32.9461 29.544 32.5154 29.62C32.1101 29.696 31.6794 29.7847 31.2234 29.886C30.7927 29.962 30.3367 30.038 29.8554 30.114C29.3741 30.19 28.8421 30.228 28.2594 30.228C28.1327 30.228 27.9934 30.228 27.8414 30.228C27.6894 30.228 27.5501 30.2153 27.4234 30.19C27.9554 29.8607 28.4367 29.43 28.8674 28.898C29.3234 28.3407 29.7034 27.7327 30.0074 27.074C30.3367 26.4153 30.5901 25.7187 30.7674 24.984C30.9447 24.2493 31.0334 23.5273 31.0334 22.818C31.0334 21.526 30.8814 20.272 30.5774 19.056C30.2734 17.8147 29.7921 16.7887 29.1334 15.978C29.8427 14.6607 30.3241 13.4573 30.5774 12.368C30.8561 11.2787 30.9954 10.1513 30.9954 8.986C30.9954 8.63133 30.9827 8.188 30.9574 7.656C30.9574 7.09867 30.9321 6.61733 30.8814 6.212C29.9947 5.95867 29.2981 5.528 28.7914 4.92C28.2847 4.28666 27.9554 3.23533 27.8034 1.766C28.2341 1.89267 28.6141 2.00667 28.9434 2.108C29.2981 2.20933 29.6527 2.298 30.0074 2.374C30.3621 2.45 30.7547 2.51333 31.1854 2.564C31.6161 2.58933 32.1354 2.602 32.7434 2.602C33.2754 2.602 33.6934 2.602 33.9974 2.602C34.3267 2.602 34.6434 2.58933 34.9474 2.564C35.2514 2.53866 35.5934 2.50067 35.9734 2.45C36.3534 2.374 36.8601 2.28533 37.4934 2.184C37.0627 2.91867 36.7207 3.65333 36.4674 4.388C36.2394 5.12267 36.0621 6.00933 35.9354 7.048C35.8087 8.08667 35.7201 9.35333 35.6694 10.848C35.6441 12.3173 35.6187 14.154 35.5934 16.358C36.4547 15.902 37.3161 15.37 38.1774 14.762C39.0387 14.1287 39.8114 13.5207 40.4954 12.938C41.1794 12.3553 41.7367 11.8613 42.1674 11.456C42.5981 11.0507 42.8387 10.8227 42.8894 10.772C42.8894 10.3667 42.9274 9.83467 43.0034 9.176C43.0794 8.492 43.1174 7.75733 43.1174 6.972C43.1174 6.592 43.0921 6.18667 43.0414 5.756C43.0161 5.32533 42.9527 4.90733 42.8514 4.502C42.7501 4.07133 42.6107 3.666 42.4334 3.286C42.2561 2.906 42.0281 2.58933 41.7494 2.336C42.0534 2.488 42.3827 2.61466 42.7374 2.716C43.1174 2.792 43.4721 2.85533 43.8014 2.906C44.1561 2.95667 44.4601 2.99467 44.7134 3.02C44.9921 3.02 45.1821 3.02 45.2834 3.02C45.6634 3.02 46.0181 2.944 46.3474 2.792C46.6767 2.64 47.0187 2.488 47.3734 2.336C47.7281 2.15867 48.1207 1.994 48.5514 1.842C48.9821 1.69 49.4887 1.614 50.0714 1.614H50.4894C50.1094 2.01933 49.7801 2.488 49.5014 3.02C49.2227 3.52666 48.9947 4.07133 48.8174 4.654C48.6654 5.23666 48.5514 5.832 48.4754 6.44C48.3994 7.02267 48.3614 7.59267 48.3614 8.15C48.3614 8.96066 48.4247 9.746 48.5514 10.506C48.7034 11.2407 48.8934 11.8993 49.1214 12.482C48.9947 12.5327 48.7921 12.6213 48.5134 12.748C48.2347 12.8747 47.9054 13.0393 47.5254 13.242C47.1454 13.4447 46.7401 13.6727 46.3094 13.926C45.8787 14.1793 45.4354 14.4327 44.9794 14.686C45.2834 14.99 45.6254 15.2813 46.0054 15.56C46.3854 15.8387 46.7781 16.1173 47.1834 16.396C47.6141 16.6493 48.0321 16.9027 48.4374 17.156C48.8427 17.4093 49.2227 17.65 49.5774 17.878C49.4507 18.1567 49.3494 18.638 49.2734 19.322C49.2227 20.006 49.1974 20.7913 49.1974 21.678C49.1974 22.3367 49.2227 23.008 49.2734 23.692C49.3241 24.3507 49.4127 24.9967 49.5394 25.63C49.6661 26.238 49.8181 26.7953 49.9954 27.302C50.1981 27.8087 50.4514 28.214 50.7554 28.518ZM78.9113 21.944C77.8473 21.564 76.6313 21.336 75.2633 21.26C73.9207 21.184 72.4513 21.1333 70.8553 21.108V22.666C70.8553 23.9833 71.0833 25.212 71.5393 26.352C72.0207 27.492 72.7047 28.3407 73.5913 28.898C72.502 29.6327 71.6533 30.418 71.0453 31.254C70.4373 32.09 69.842 33.04 69.2593 34.104C68.8287 33.04 68.1067 32.052 67.0933 31.14C66.1053 30.228 65.0413 29.4807 63.9013 28.898C64.408 28.1633 64.788 27.264 65.0413 26.2C65.2947 25.1107 65.4213 23.996 65.4213 22.856C65.4213 21.564 65.2693 20.3607 64.9653 19.246C64.6867 18.1313 64.2813 17.2953 63.7493 16.738C64.484 15.674 64.9653 14.496 65.1933 13.204C65.4467 11.8867 65.5733 10.5693 65.5733 9.252C65.5733 8.89733 65.5607 8.54267 65.5353 8.188C65.5353 7.83333 65.5227 7.47867 65.4973 7.124C64.6107 6.84533 63.8507 6.35133 63.2173 5.642C62.584 4.93267 62.204 3.932 62.0773 2.64C62.9387 2.76667 63.724 2.868 64.4333 2.944C65.1427 3.02 65.8267 3.058 66.4853 3.058C67.676 3.058 68.8287 2.89333 69.9433 2.564C71.0833 2.23467 72.388 1.63933 73.8573 0.777998C74.136 1.006 74.6807 1.29733 75.4913 1.652C76.3273 2.00666 77.3027 2.34866 78.4173 2.678C79.532 3.00733 80.71 3.29867 81.9513 3.552C83.1927 3.78 84.3707 3.894 85.4853 3.894C85.84 3.894 86.182 3.88133 86.5113 3.856C86.8407 3.83067 87.1827 3.79267 87.5373 3.742C87.4107 4.02067 87.246 4.35 87.0433 4.73C86.8407 5.11 86.6 5.49 86.3213 5.87C86.068 6.25 85.764 6.61733 85.4093 6.972C85.0547 7.32667 84.6747 7.63067 84.2693 7.884C84.1427 8.69467 84.0413 9.49267 83.9653 10.278C83.9147 11.0633 83.8893 11.8233 83.8893 12.558C83.8893 13.622 83.978 14.534 84.1553 15.294C84.3327 16.054 84.6493 16.89 85.1053 17.802C84.2947 18.03 83.5853 18.2833 82.9773 18.562C82.3693 18.8153 81.8247 19.1067 81.3433 19.436C80.8873 19.7653 80.4567 20.1453 80.0513 20.576C79.6713 20.9813 79.2913 21.4373 78.9113 21.944ZM79.1773 16.092C79.152 15.7373 79.1267 15.2307 79.1013 14.572C79.1013 13.9133 79.0887 13.204 79.0633 12.444C79.038 11.684 79.0127 10.924 78.9873 10.164C78.9873 9.37867 78.9747 8.69467 78.9493 8.112C78.1387 7.96 77.3787 7.79533 76.6693 7.618C75.96 7.44067 75.276 7.26333 74.6173 7.086C73.984 6.88333 73.3507 6.69333 72.7173 6.516C72.1093 6.31333 71.476 6.12333 70.8173 5.946C70.792 6.782 70.7793 7.60533 70.7793 8.416C70.7793 9.22667 70.7793 10.0247 70.7793 10.81C70.7793 11.874 70.7793 12.8873 70.7793 13.85C70.7793 14.7873 70.792 15.7373 70.8173 16.7C71.0707 16.6747 71.3367 16.662 71.6153 16.662C71.9193 16.6367 72.236 16.624 72.5653 16.624C73.072 16.624 73.604 16.6493 74.1613 16.7C74.7187 16.7253 75.2507 16.776 75.7573 16.852C76.264 16.9027 76.7073 16.9787 77.0873 17.08C77.4927 17.1813 77.7967 17.2953 77.9993 17.422C78.126 17.1433 78.3033 16.89 78.5313 16.662C78.7593 16.4087 78.9747 16.2187 79.1773 16.092ZM94.5988 11.608C96.3468 12.1907 97.8035 12.5833 98.9688 12.786C100.134 12.9887 101.211 13.09 102.199 13.09C102.756 13.09 103.174 13.09 103.453 13.09C103.757 13.0647 104.048 13.0267 104.327 12.976C104.023 14.6227 103.871 16.5607 103.871 18.79C103.871 21.526 104.099 24.186 104.555 26.77C103.921 26.846 103.25 27.0107 102.541 27.264C101.831 27.5173 101.122 27.834 100.413 28.214C99.7035 28.594 99.0195 29.0373 98.3608 29.544C97.7021 30.0253 97.1068 30.532 96.5748 31.064C96.2961 30.836 95.8148 30.5953 95.1308 30.342C94.4468 30.114 93.6995 29.8987 92.8888 29.696C92.0781 29.4933 91.2675 29.3287 90.4568 29.202C89.6461 29.0753 88.9748 29.012 88.4428 29.012C88.2908 29.012 88.1388 29.0247 87.9868 29.05C87.8601 29.05 87.7335 29.0627 87.6068 29.088C87.9615 28.784 88.2148 28.1887 88.3668 27.302C88.5441 26.39 88.6328 25.212 88.6328 23.768C88.6328 23.0333 88.6075 22.2353 88.5568 21.374C88.5061 20.4873 88.4301 19.6513 88.3288 18.866C88.2528 18.0807 88.1641 17.4093 88.0628 16.852C87.9615 16.2947 87.8601 15.9527 87.7588 15.826C88.7468 15.6487 89.8488 15.1927 91.0648 14.458C92.2808 13.698 93.4588 12.748 94.5988 11.608ZM99.1588 16.434C97.9935 16.3327 96.8535 16.168 95.7388 15.94C94.6241 15.6867 93.7755 15.408 93.1928 15.104C93.3195 16.168 93.4081 17.1687 93.4588 18.106C93.5095 19.018 93.5348 19.9427 93.5348 20.88C93.5348 21.6147 93.5095 22.4507 93.4588 23.388C93.4335 24.3 93.3955 25.1993 93.3448 26.086C94.2061 26.1873 95.1561 26.3267 96.1948 26.504C97.2335 26.6813 98.1961 26.9093 99.0828 27.188L99.1588 16.434ZM106.559 30.798C107.218 30.4687 107.712 29.924 108.041 29.164C108.37 28.404 108.535 27.5173 108.535 26.504V7.01C108.535 6.37667 108.522 5.80666 108.497 5.3C108.472 4.79333 108.408 4.32467 108.307 3.894C108.231 3.46333 108.117 3.04533 107.965 2.64C107.813 2.23466 107.623 1.81666 107.395 1.386C107.902 1.56333 108.497 1.652 109.181 1.652C110.017 1.652 110.891 1.51266 111.803 1.234C112.74 0.955333 113.741 0.562666 114.805 0.0559982C114.298 0.663998 113.944 1.47466 113.741 2.488C113.564 3.50133 113.475 4.66667 113.475 5.984V24.376C113.475 25.4147 113.513 26.276 113.589 26.96C113.665 27.644 113.792 28.252 113.969 28.784C114.172 29.316 114.45 29.8227 114.805 30.304C115.16 30.8107 115.603 31.406 116.135 32.09L115.907 32.432C115.223 32.1027 114.653 31.8367 114.197 31.634C113.741 31.4567 113.348 31.292 113.019 31.14C112.715 30.988 112.436 30.8233 112.183 30.646C111.955 30.494 111.714 30.2787 111.461 30C110.726 30.304 109.928 30.5573 109.067 30.76C108.231 30.9627 107.408 31.064 106.597 31.064L106.559 30.798ZM123.715 12.71V26.656C123.715 28.252 124.057 29.1767 124.741 29.43V30C123.931 30.1267 123.171 30.2787 122.461 30.456C121.752 30.6333 121.017 30.836 120.257 31.064H120.067C119.206 29.8987 118.775 28.5307 118.775 26.96V13.736L117.369 13.128V12.71C118.256 12.5833 119.219 12.4187 120.257 12.216C121.296 11.988 122.221 11.7727 123.031 11.57L123.715 12.71ZM117.711 5.3C118.142 4.56533 118.661 3.84333 119.269 3.134C119.903 2.39933 120.599 1.82933 121.359 1.424C121.511 1.62667 121.739 1.86733 122.043 2.146C122.373 2.42466 122.715 2.70333 123.069 2.982C123.449 3.26067 123.804 3.52666 124.133 3.78C124.488 4.008 124.754 4.17266 124.931 4.274C124.07 4.882 123.335 5.47733 122.727 6.06C122.145 6.61733 121.638 7.32667 121.207 8.188C121.055 8.01067 120.815 7.79533 120.485 7.542C120.181 7.26333 119.852 6.98466 119.497 6.706C119.143 6.42733 118.801 6.16133 118.471 5.908C118.142 5.65467 117.889 5.452 117.711 5.3ZM134.57 15.408V23.806C134.57 25.1233 134.887 26.1113 135.52 26.77C136.179 27.4287 136.989 27.7833 137.952 27.834V28.366C137.521 28.518 137.065 28.708 136.584 28.936C136.103 29.164 135.634 29.4047 135.178 29.658C134.722 29.886 134.291 30.1267 133.886 30.38C133.481 30.6333 133.164 30.8613 132.936 31.064C132.353 30.7093 131.758 30.3673 131.15 30.038C130.542 29.7087 130.035 29.4427 129.63 29.24V15.104H126.476V14.686C127.591 14.2553 128.642 13.5967 129.63 12.71V11.494C129.63 11.2913 129.605 10.9747 129.554 10.544C129.529 10.088 129.491 9.632 129.44 9.176C129.389 8.69467 129.326 8.264 129.25 7.884C129.174 7.47867 129.085 7.21266 128.984 7.086C130.124 7.01 131.175 6.782 132.138 6.402C133.101 6.022 134.127 5.54067 135.216 4.958C135.115 5.21133 135.026 5.604 134.95 6.136C134.874 6.668 134.798 7.238 134.722 7.846C134.671 8.42867 134.633 8.99867 134.608 9.556C134.583 10.088 134.57 10.468 134.57 10.696V12.71H139.928V12.862C139.523 13.2927 139.155 13.774 138.826 14.306C138.522 14.838 138.307 15.3573 138.18 15.864L134.57 15.408ZM146.983 12.71V26.656C146.983 28.252 147.325 29.1767 148.009 29.43V30C147.198 30.1267 146.438 30.2787 145.729 30.456C145.02 30.6333 144.285 30.836 143.525 31.064H143.335C142.474 29.8987 142.043 28.5307 142.043 26.96V13.736L140.637 13.128V12.71C141.524 12.5833 142.486 12.4187 143.525 12.216C144.564 11.988 145.488 11.7727 146.299 11.57L146.983 12.71ZM140.979 5.3C141.41 4.56533 141.929 3.84333 142.537 3.134C143.17 2.39933 143.867 1.82933 144.627 1.424C144.779 1.62667 145.007 1.86733 145.311 2.146C145.64 2.42466 145.982 2.70333 146.337 2.982C146.717 3.26067 147.072 3.52666 147.401 3.78C147.756 4.008 148.022 4.17266 148.199 4.274C147.338 4.882 146.603 5.47733 145.995 6.06C145.412 6.61733 144.906 7.32667 144.475 8.188C144.323 8.01067 144.082 7.79533 143.753 7.542C143.449 7.26333 143.12 6.98466 142.765 6.706C142.41 6.42733 142.068 6.16133 141.739 5.908C141.41 5.65467 141.156 5.452 140.979 5.3ZM160.422 31.178C159.966 30.8993 159.345 30.608 158.56 30.304C157.774 30.0253 156.913 29.772 155.976 29.544C155.064 29.316 154.139 29.126 153.202 28.974C152.264 28.822 151.416 28.746 150.656 28.746C150.833 28.4927 150.985 28.1127 151.112 27.606C151.264 27.0993 151.39 26.5167 151.492 25.858C151.593 25.174 151.669 24.4393 151.72 23.654C151.77 22.8687 151.796 22.058 151.796 21.222C151.796 19.854 151.72 18.5747 151.568 17.384C151.441 16.168 151.238 15.1167 150.96 14.23C152.328 14.002 153.734 13.66 155.178 13.204C156.622 12.7227 157.964 12.1907 159.206 11.608C160.042 12.14 161.017 12.6087 162.132 13.014C163.246 13.4193 164.374 13.7233 165.514 13.926C165.032 14.8887 164.361 15.674 163.5 16.282C162.664 16.8647 161.802 17.156 160.916 17.156C160.333 17.156 159.636 16.9533 158.826 16.548C158.015 16.1427 157.217 15.5727 156.432 14.838C156.558 15.8007 156.647 16.7633 156.698 17.726C156.774 18.6633 156.812 19.6133 156.812 20.576C156.812 21.412 156.774 22.3367 156.698 23.35C156.647 24.338 156.558 25.2247 156.432 26.01C156.989 26.238 157.698 26.4533 158.56 26.656C159.446 26.8587 160.244 26.9853 160.954 27.036C161.106 26.0733 161.498 25.2373 162.132 24.528C162.79 23.7933 163.652 23.274 164.716 22.97C164.69 23.1727 164.678 23.4513 164.678 23.806C164.678 24.1607 164.678 24.5913 164.678 25.098C164.678 26.0607 164.716 26.8333 164.792 27.416C164.893 27.9987 165.007 28.5053 165.134 28.936C164.728 29.012 164.285 29.1387 163.804 29.316C163.348 29.468 162.892 29.658 162.436 29.886C162.005 30.0887 161.6 30.304 161.22 30.532C160.865 30.76 160.599 30.9753 160.422 31.178ZM173.389 26.428C173.946 26.4787 174.516 26.5167 175.099 26.542C175.707 26.5673 176.454 26.6813 177.341 26.884V21.526C176.606 21.8047 175.897 22.0453 175.213 22.248C174.529 22.4253 173.946 22.5393 173.465 22.59L173.389 26.428ZM183.193 14.306C182.787 14.8887 182.521 15.6613 182.395 16.624C182.293 17.5867 182.243 18.9927 182.243 20.842C182.243 22.058 182.268 23.0333 182.319 23.768C182.395 24.4773 182.496 25.0473 182.623 25.478C182.749 25.8833 182.927 26.1747 183.155 26.352C183.383 26.504 183.661 26.618 183.991 26.694V27.112C183.636 27.2387 183.256 27.4667 182.851 27.796C182.471 28.1 182.091 28.442 181.711 28.822C181.331 29.202 180.989 29.5947 180.685 30C180.381 30.4053 180.153 30.76 180.001 31.064C179.469 30.7093 178.987 30.2407 178.557 29.658C178.126 29.0753 177.784 28.4927 177.531 27.91L174.909 31.064C173.946 30.4813 172.882 30.038 171.717 29.734C170.577 29.43 169.272 29.2653 167.803 29.24C168.056 28.5813 168.208 27.758 168.259 26.77C168.309 25.7567 168.335 24.7433 168.335 23.73C168.335 23.122 168.297 22.552 168.221 22.02C168.145 21.4627 168.018 20.9687 167.841 20.538C168.398 20.614 169.006 20.652 169.665 20.652C170.374 20.652 171.096 20.6267 171.831 20.576C172.591 20.5 173.313 20.3987 173.997 20.272C174.681 20.1453 175.301 20.006 175.859 19.854C176.441 19.6767 176.923 19.4867 177.303 19.284V15.522C176.441 15.902 175.542 16.2187 174.605 16.472C173.667 16.7253 172.895 16.852 172.287 16.852C171.856 16.852 171.451 16.814 171.071 16.738C170.716 16.6367 170.387 16.4593 170.083 16.206C169.779 15.9273 169.5 15.5473 169.247 15.066C169.019 14.5847 168.816 13.964 168.639 13.204C168.791 13.204 168.892 13.2167 168.943 13.242C169.019 13.242 169.209 13.242 169.513 13.242C171.337 13.242 172.907 13.0773 174.225 12.748C175.542 12.4187 176.568 12.0387 177.303 11.608C178.139 12.52 179 13.204 179.887 13.66C180.799 14.0907 181.901 14.306 183.193 14.306ZM185.379 30.798C186.038 30.4687 186.532 29.924 186.861 29.164C187.191 28.404 187.355 27.5173 187.355 26.504V7.01C187.355 6.37667 187.343 5.80666 187.317 5.3C187.292 4.79333 187.229 4.32467 187.127 3.894C187.051 3.46333 186.937 3.04533 186.785 2.64C186.633 2.23466 186.443 1.81666 186.215 1.386C186.722 1.56333 187.317 1.652 188.001 1.652C188.837 1.652 189.711 1.51266 190.623 1.234C191.561 0.955333 192.561 0.562666 193.625 0.0559982C193.119 0.663998 192.764 1.47466 192.561 2.488C192.384 3.50133 192.295 4.66667 192.295 5.984V24.376C192.295 25.4147 192.333 26.276 192.409 26.96C192.485 27.644 192.612 28.252 192.789 28.784C192.992 29.316 193.271 29.8227 193.625 30.304C193.98 30.8107 194.423 31.406 194.955 32.09L194.727 32.432C194.043 32.1027 193.473 31.8367 193.017 31.634C192.561 31.4567 192.169 31.292 191.839 31.14C191.535 30.988 191.257 30.8233 191.003 30.646C190.775 30.494 190.535 30.2787 190.281 30C189.547 30.304 188.749 30.5573 187.887 30.76C187.051 30.9627 186.228 31.064 185.417 31.064L185.379 30.798ZM211.983 25.706C212.439 25.9593 212.857 26.1873 213.237 26.39C213.617 26.5927 213.997 26.7827 214.377 26.96C214.782 27.112 215.213 27.2513 215.669 27.378C216.125 27.5047 216.644 27.6187 217.227 27.72C218.291 27.188 219.14 26.846 219.773 26.694C220.406 26.5167 220.824 26.3647 221.027 26.238C221.078 23.7807 221.116 21.2093 221.141 18.524C221.192 15.8133 221.217 13.242 221.217 10.81C221.217 10.1767 221.217 9.556 221.217 8.948C221.217 8.31466 221.192 7.70666 221.141 7.124C220.685 6.87066 220.267 6.64267 219.887 6.44C219.507 6.23733 219.114 6.06 218.709 5.908C218.329 5.73067 217.911 5.57867 217.455 5.452C217.024 5.32533 216.518 5.21133 215.935 5.11C214.871 5.642 214.01 6.00933 213.351 6.212C212.718 6.41467 212.3 6.57933 212.097 6.706C212.072 7.33933 212.046 8.112 212.021 9.024C211.996 9.91067 211.97 10.8733 211.945 11.912C211.945 12.9507 211.945 14.04 211.945 15.18C211.945 16.32 211.945 17.4347 211.945 18.524C211.945 19.664 211.945 20.8927 211.945 22.21C211.97 23.5273 211.983 24.6927 211.983 25.706ZM205.143 16.244C205.472 15.8893 205.764 15.446 206.017 14.914C206.296 14.3567 206.536 13.7613 206.739 13.128C206.942 12.4693 207.094 11.7853 207.195 11.076C207.322 10.3667 207.385 9.67 207.385 8.986C207.385 7.82067 207.208 6.71867 206.853 5.68C206.498 4.64133 205.916 3.88133 205.105 3.4C205.89 3.34933 206.739 3.248 207.651 3.096C208.588 2.944 209.526 2.754 210.463 2.526C211.4 2.298 212.3 2.05733 213.161 1.804C214.022 1.52533 214.782 1.234 215.441 0.929998C216.277 1.05666 217.265 1.272 218.405 1.576C219.57 1.85467 220.723 2.146 221.863 2.45C223.003 2.754 224.042 3.03267 224.979 3.286C225.942 3.53933 226.638 3.67867 227.069 3.704C226.714 4.28667 226.461 5.02133 226.309 5.908C226.157 6.76933 226.081 7.66867 226.081 8.606C226.081 10.0247 226.258 11.4433 226.613 12.862C226.968 14.2553 227.474 15.3953 228.133 16.282C227.5 17.0673 226.98 18.144 226.575 19.512C226.17 20.8547 225.967 22.248 225.967 23.692C225.967 24.8573 226.144 25.9467 226.499 26.96C226.854 27.9733 227.436 28.7333 228.247 29.24C227.462 29.2907 226.588 29.392 225.625 29.544C224.688 29.696 223.738 29.886 222.775 30.114C221.838 30.342 220.926 30.5827 220.039 30.836C219.152 31.1147 218.392 31.406 217.759 31.71C216.923 31.6087 215.935 31.4187 214.795 31.14C213.655 30.8613 212.515 30.57 211.375 30.266C210.26 29.962 209.234 29.6833 208.297 29.43C207.36 29.1513 206.688 28.9867 206.283 28.936C206.638 28.6067 206.878 28.0747 207.005 27.34C207.157 26.58 207.233 25.7187 207.233 24.756C207.233 23.8693 207.17 22.9447 207.043 21.982C206.942 20.994 206.79 20.0947 206.587 19.284C206.41 18.448 206.194 17.7513 205.941 17.194C205.688 16.6367 205.422 16.32 205.143 16.244ZM232.442 22.552C232.442 21.1587 232.417 20.044 232.366 19.208C232.316 18.3467 232.214 17.688 232.062 17.232C231.936 16.7507 231.758 16.4213 231.53 16.244C231.328 16.0413 231.062 15.8893 230.732 15.788V15.37C231.062 15.2433 231.429 15.028 231.834 14.724C232.24 14.3947 232.632 14.04 233.012 13.66C233.392 13.28 233.734 12.8873 234.038 12.482C234.342 12.0767 234.57 11.722 234.722 11.418C235.254 11.7727 235.736 12.2413 236.166 12.824C236.597 13.4067 236.939 13.9893 237.192 14.572C237.648 14.268 238.168 13.964 238.75 13.66C239.333 13.356 239.941 13.0773 240.574 12.824C241.233 12.5453 241.892 12.3047 242.55 12.102C243.234 11.874 243.906 11.684 244.564 11.532C245.172 12.1907 245.831 12.7353 246.54 13.166C247.25 13.5967 247.972 13.9133 248.706 14.116C248.428 15.18 248.263 16.1933 248.212 17.156C248.162 18.0933 248.136 19.0433 248.136 20.006C248.136 21.1967 248.149 22.2353 248.174 23.122C248.2 24.0087 248.238 24.7687 248.288 25.402C248.339 26.0353 248.402 26.5547 248.478 26.96C248.554 27.34 248.656 27.644 248.782 27.872C247.642 28.0747 246.477 28.4673 245.286 29.05C244.121 29.6073 242.956 30.2913 241.79 31.102C241.005 30.7727 240.258 30.5193 239.548 30.342C238.864 30.1647 238.142 30.038 237.382 29.962V33.8C237.382 34.4587 237.395 35.0287 237.42 35.51C237.471 36.0167 237.534 36.4853 237.61 36.916C237.686 37.372 237.8 37.79 237.952 38.17C238.104 38.5753 238.294 38.9933 238.522 39.424C238.016 39.2467 237.42 39.158 236.736 39.158C235.9 39.158 235.014 39.2973 234.076 39.576C233.164 39.8547 232.176 40.2473 231.112 40.754C231.619 40.146 231.961 39.3353 232.138 38.322C232.341 37.3087 232.442 36.1433 232.442 34.826V22.552ZM240.536 27.34C240.84 27.0613 241.246 26.7573 241.752 26.428C242.284 26.0733 242.753 25.8073 243.158 25.63C243.108 25.0727 243.07 24.3253 243.044 23.388C243.044 22.4253 243.044 21.5133 243.044 20.652C243.044 19.8413 243.057 19.0307 243.082 18.22C243.133 17.4093 243.184 16.662 243.234 15.978C242.728 16.0033 242.183 16.0793 241.6 16.206C241.043 16.3073 240.498 16.434 239.966 16.586C239.434 16.738 238.94 16.9153 238.484 17.118C238.028 17.2953 237.661 17.4727 237.382 17.65V26.58C237.788 26.6053 238.294 26.694 238.902 26.846C239.51 26.998 240.055 27.1627 240.536 27.34ZM257.68 12.71V26.656C257.68 28.252 258.022 29.1767 258.706 29.43V30C257.896 30.1267 257.136 30.2787 256.426 30.456C255.717 30.6333 254.982 30.836 254.222 31.064H254.032C253.171 29.8987 252.74 28.5307 252.74 26.96V13.736L251.334 13.128V12.71C252.221 12.5833 253.184 12.4187 254.222 12.216C255.261 11.988 256.186 11.7727 256.996 11.57L257.68 12.71ZM251.676 5.3C252.107 4.56533 252.626 3.84333 253.234 3.134C253.868 2.39933 254.564 1.82933 255.324 1.424C255.476 1.62667 255.704 1.86733 256.008 2.146C256.338 2.42466 256.68 2.70333 257.034 2.982C257.414 3.26067 257.769 3.52666 258.098 3.78C258.453 4.008 258.719 4.17266 258.896 4.274C258.035 4.882 257.3 5.47733 256.692 6.06C256.11 6.61733 255.603 7.32667 255.172 8.188C255.02 8.01067 254.78 7.79533 254.45 7.542C254.146 7.26333 253.817 6.98466 253.462 6.706C253.108 6.42733 252.766 6.16133 252.436 5.908C252.107 5.65467 251.854 5.452 251.676 5.3ZM267.775 15.864C268.864 15.1547 269.84 14.4453 270.701 13.736C271.562 13.0267 272.449 12.1907 273.361 11.228C273.792 11.6333 274.184 12.0007 274.539 12.33C274.894 12.634 275.248 12.9127 275.603 13.166C275.983 13.4193 276.376 13.6727 276.781 13.926C277.186 14.154 277.655 14.3947 278.187 14.648C278.086 15.0027 277.997 15.3827 277.921 15.788C277.87 16.168 277.82 16.662 277.769 17.27C277.744 17.878 277.718 18.6253 277.693 19.512C277.668 20.3987 277.655 21.5007 277.655 22.818C277.655 23.9327 277.655 24.8573 277.655 25.592C277.68 26.3013 277.706 26.884 277.731 27.34C277.756 27.796 277.794 28.176 277.845 28.48C277.896 28.7587 277.946 29.0247 277.997 29.278C277.49 29.4553 276.971 29.696 276.439 30C275.932 30.304 275.413 30.646 274.881 31.026C274.374 31.406 273.893 31.7987 273.437 32.204C272.981 32.6093 272.576 33.002 272.221 33.382L271.993 33.154C272.145 32.6473 272.284 32.014 272.411 31.254C272.538 30.5193 272.639 29.7847 272.715 29.05C272.791 28.29 272.854 27.5933 272.905 26.96C272.956 26.3267 272.981 25.8707 272.981 25.592C272.981 24.148 272.968 22.704 272.943 21.26C272.943 19.816 272.943 18.372 272.943 16.928L272.449 16.396L267.775 18.486V26.656C267.775 28.252 268.117 29.1767 268.801 29.43V30H261.809V29.43C262.113 29.3033 262.354 29.05 262.531 28.67C262.734 28.2647 262.835 27.7073 262.835 26.998V13.736L261.429 13.128V12.71C262.316 12.5833 263.278 12.4187 264.317 12.216C265.356 11.988 266.28 11.7727 267.091 11.57L267.775 12.71V15.864ZM287.59 12.71V26.656C287.59 28.252 287.932 29.1767 288.616 29.43V30C287.806 30.1267 287.046 30.2787 286.336 30.456C285.627 30.6333 284.892 30.836 284.132 31.064H283.942C283.081 29.8987 282.65 28.5307 282.65 26.96V13.736L281.244 13.128V12.71C282.131 12.5833 283.094 12.4187 284.132 12.216C285.171 11.988 286.096 11.7727 286.906 11.57L287.59 12.71ZM281.586 5.3C282.017 4.56533 282.536 3.84333 283.144 3.134C283.778 2.39933 284.474 1.82933 285.234 1.424C285.386 1.62667 285.614 1.86733 285.918 2.146C286.248 2.42466 286.59 2.70333 286.944 2.982C287.324 3.26067 287.679 3.52666 288.008 3.78C288.363 4.008 288.629 4.17266 288.806 4.274C287.945 4.882 287.21 5.47733 286.602 6.06C286.02 6.61733 285.513 7.32667 285.082 8.188C284.93 8.01067 284.69 7.79533 284.36 7.542C284.056 7.26333 283.727 6.98466 283.372 6.706C283.018 6.42733 282.676 6.16133 282.346 5.908C282.017 5.65467 281.764 5.452 281.586 5.3ZM298.255 11.608C300.003 12.1907 301.46 12.5833 302.625 12.786C303.79 12.9887 304.867 13.09 305.855 13.09C306.412 13.09 306.83 13.09 307.109 13.09C307.413 13.0647 307.704 13.0267 307.983 12.976C307.679 14.6227 307.527 16.5607 307.527 18.79C307.527 21.526 307.755 24.186 308.211 26.77C307.578 26.846 306.906 27.0107 306.197 27.264C305.488 27.5173 304.778 27.834 304.069 28.214C303.36 28.594 302.676 29.0373 302.017 29.544C301.358 30.0253 300.763 30.532 300.231 31.064C299.952 30.836 299.471 30.5953 298.787 30.342C298.103 30.114 297.356 29.8987 296.545 29.696C295.734 29.4933 294.924 29.3287 294.113 29.202C293.302 29.0753 292.631 29.012 292.099 29.012C291.947 29.012 291.795 29.0247 291.643 29.05C291.516 29.05 291.39 29.0627 291.263 29.088C291.618 28.784 291.871 28.1887 292.023 27.302C292.2 26.39 292.289 25.212 292.289 23.768C292.289 23.0333 292.264 22.2353 292.213 21.374C292.162 20.4873 292.086 19.6513 291.985 18.866C291.909 18.0807 291.82 17.4093 291.719 16.852C291.618 16.2947 291.516 15.9527 291.415 15.826C292.403 15.6487 293.505 15.1927 294.721 14.458C295.937 13.698 297.115 12.748 298.255 11.608ZM302.815 16.434C301.65 16.3327 300.51 16.168 299.395 15.94C298.28 15.6867 297.432 15.408 296.849 15.104C296.976 16.168 297.064 17.1687 297.115 18.106C297.166 19.018 297.191 19.9427 297.191 20.88C297.191 21.6147 297.166 22.4507 297.115 23.388C297.09 24.3 297.052 25.1993 297.001 26.086C297.862 26.1873 298.812 26.3267 299.851 26.504C300.89 26.6813 301.852 26.9093 302.739 27.188L302.815 16.434ZM317.093 15.864C318.183 15.1547 319.158 14.4453 320.019 13.736C320.881 13.0267 321.767 12.1907 322.679 11.228C323.11 11.6333 323.503 12.0007 323.857 12.33C324.212 12.634 324.567 12.9127 324.921 13.166C325.301 13.4193 325.694 13.6727 326.099 13.926C326.505 14.154 326.973 14.3947 327.505 14.648C327.404 15.0027 327.315 15.3827 327.239 15.788C327.189 16.168 327.138 16.662 327.087 17.27C327.062 17.878 327.037 18.6253 327.011 19.512C326.986 20.3987 326.973 21.5007 326.973 22.818C326.973 23.9327 326.973 24.8573 326.973 25.592C326.999 26.3013 327.024 26.884 327.049 27.34C327.075 27.796 327.113 28.176 327.163 28.48C327.214 28.7587 327.265 29.0247 327.315 29.278C326.809 29.4553 326.289 29.696 325.757 30C325.251 30.304 324.731 30.646 324.199 31.026C323.693 31.406 323.211 31.7987 322.755 32.204C322.299 32.6093 321.894 33.002 321.539 33.382L321.311 33.154C321.463 32.6473 321.603 32.014 321.729 31.254C321.856 30.5193 321.957 29.7847 322.033 29.05C322.109 28.29 322.173 27.5933 322.223 26.96C322.274 26.3267 322.299 25.8707 322.299 25.592C322.299 24.148 322.287 22.704 322.261 21.26C322.261 19.816 322.261 18.372 322.261 16.928L321.767 16.396L317.093 18.486V26.656C317.093 28.252 317.435 29.1767 318.119 29.43V30H311.127V29.43C311.431 29.3033 311.672 29.05 311.849 28.67C312.052 28.2647 312.153 27.7073 312.153 26.998V13.736L310.747 13.128V12.71C311.634 12.5833 312.597 12.4187 313.635 12.216C314.674 11.988 315.599 11.7727 316.409 11.57L317.093 12.71V15.864ZM336.605 14.686C336.554 15.0913 336.516 15.484 336.491 15.864C336.491 16.244 336.491 16.6873 336.491 17.194C336.491 17.7007 336.503 18.2073 336.529 18.714C336.554 19.2207 336.592 19.6767 336.643 20.082C337.124 19.9047 337.618 19.7527 338.125 19.626C338.657 19.4993 339.239 19.3853 339.873 19.284C340.531 19.1827 341.266 19.094 342.077 19.018C342.887 18.942 343.837 18.866 344.927 18.79C344.851 19.6767 344.813 20.9687 344.813 22.666C344.813 24.11 344.838 25.402 344.889 26.542C344.939 27.6567 345.028 28.5053 345.155 29.088C344.369 29.088 343.571 29.1387 342.761 29.24C341.95 29.3413 341.177 29.4807 340.443 29.658C339.708 29.8353 339.024 30.0507 338.391 30.304C337.757 30.5573 337.225 30.836 336.795 31.14C336.491 30.8613 336.149 30.6207 335.769 30.418C335.414 30.2153 334.983 30.0507 334.477 29.924C333.97 29.772 333.375 29.658 332.691 29.582C332.007 29.4807 331.196 29.4047 330.259 29.354C330.309 28.5687 330.461 27.7707 330.715 26.96C330.993 26.124 331.335 25.4527 331.741 24.946C332.323 24.946 333.235 25.1613 334.477 25.592C335.718 26.0227 337.365 26.694 339.417 27.606C339.569 26.7953 339.683 26.0607 339.759 25.402C339.835 24.718 339.873 24.0087 339.873 23.274C339.873 22.818 339.873 22.4887 339.873 22.286C339.873 22.0833 339.86 21.8933 339.835 21.716C338.72 21.8173 337.428 22.0073 335.959 22.286C334.489 22.5393 333.109 22.8433 331.817 23.198C331.918 22.1087 331.981 21.2727 332.007 20.69C332.032 20.082 332.045 19.5373 332.045 19.056C332.045 17.916 331.981 16.9153 331.855 16.054C331.753 15.1927 331.576 14.3947 331.323 13.66C332.285 13.66 333.324 13.4953 334.439 13.166C335.553 12.8367 336.947 12.3173 338.619 11.608C340.215 12.4187 342.596 12.938 345.763 13.166C345.307 14.2553 344.787 15.0533 344.205 15.56C343.622 16.0413 342.9 16.282 342.039 16.282C341.659 16.282 341.228 16.244 340.747 16.168C340.265 16.092 339.771 15.978 339.265 15.826C338.783 15.674 338.302 15.5093 337.821 15.332C337.365 15.1293 336.959 14.914 336.605 14.686Z" fill="black"/>
</svg>
